<?xml version="1.0" encoding="UTF-8" standalone="no"?>
<!-- Created with Inkscape (http://www.inkscape.org/) -->

<svg
   xmlns:dc="http://purl.org/dc/elements/1.1/"
   xmlns:cc="http://creativecommons.org/ns#"
   xmlns:rdf="http://www.w3.org/1999/02/22-rdf-syntax-ns#"
   xmlns:svg="http://www.w3.org/2000/svg"
   xmlns="http://www.w3.org/2000/svg"
   xmlns:sodipodi="http://sodipodi.sourceforge.net/DTD/sodipodi-0.dtd"
   xmlns:inkscape="http://www.inkscape.org/namespaces/inkscape"
   width="200"
   height="500"
   id="svg2"
   version="1.1"
   inkscape:version="0.47 r22583"
   sodipodi:docname="Burette_vertical.svg">
  <defs
     id="defs4">
    <inkscape:perspective
       sodipodi:type="inkscape:persp3d"
       inkscape:vp_x="0 : 250 : 1"
       inkscape:vp_y="0 : 1000 : 0"
       inkscape:vp_z="200 : 250 : 1"
       inkscape:persp3d-origin="100 : 166.66667 : 1"
       id="perspective34" />
  </defs>
  <sodipodi:namedview
     id="base"
     pagecolor="#ffffff"
     bordercolor="#666666"
     borderopacity="1.0"
     inkscape:pageopacity="0.0"
     inkscape:pageshadow="2"
     inkscape:zoom="1.798"
     inkscape:cx="100"
     inkscape:cy="250"
     inkscape:document-units="px"
     inkscape:current-layer="layer1"
     showgrid="false"
     inkscape:window-width="1920"
     inkscape:window-height="1144"
     inkscape:window-x="-4"
     inkscape:window-y="-4"
     inkscape:window-maximized="1" />
  <metadata
     id="metadata7">
    <rdf:RDF>
      <cc:Work
         rdf:about="">
        <dc:format>image/svg+xml</dc:format>
        <dc:type
           rdf:resource="http://purl.org/dc/dcmitype/StillImage" />
        <dc:title />
      </cc:Work>
    </rdf:RDF>
  </metadata>
  <g
     inkscape:label="Ebene 1"
     inkscape:groupmode="layer"
     id="layer1"
     transform="translate(0,-552.36218)">
    <g
       id="g3051">
      <path
         d="m 86.813152,720.03774 16.643098,0 m -11.909705,2.6462 6.882294,0 m -6.882294,2.57723 6.882294,0 m -6.882294,2.8894 6.882294,0 m -6.882294,2.89303 6.882294,0 m -6.882294,5.28151 6.882294,0 m -6.882294,2.76599 6.882294,0 m -6.882294,2.76235 6.882294,0 m -6.882294,3.13624 6.882294,0 m -6.882294,5.96393 6.882294,0 m -6.882294,2.70064 6.882294,0 m -6.882294,2.52279 6.882294,0 m -6.882294,2.95111 6.882294,0 m -6.882294,5.83325 6.882294,0 m -6.882294,2.70428 6.882294,0 m -6.882294,2.89303 6.882294,0 m -6.882294,2.94385 6.882294,0 m -6.882294,5.72073 6.882294,0 m -6.882294,2.51552 6.882294,0 m -6.882294,2.6462 6.882294,0 m -6.882294,2.64257 6.882294,0 m -6.882294,6.01837 6.882294,0 m -6.882294,3.01645 6.882294,0 m -6.882294,3.0709 6.882294,0 m -6.882294,2.78414 6.882294,0 m -6.882294,22.78126 6.882294,0 m -6.882294,2.70428 6.882294,0"
         style="fill:none;stroke:#1a1a18;stroke-width:0.49366674;stroke-linecap:round;stroke-linejoin:round;stroke-miterlimit:4;stroke-opacity:1;stroke-dasharray:none"
         id="path2996"
         inkscape:connector-curvature="0" />
      <path
         d="m 91.543641,829.79615 6.882294,0"
         style="fill:none;stroke:#1a1a18;stroke-width:0.49366673999999999;stroke-linecap:round;stroke-linejoin:round;stroke-miterlimit:4;stroke-opacity:1;stroke-dasharray:none"
         id="path3000"
         inkscape:connector-curvature="0" />
      <path
         d="m 91.543641,832.68341 6.882294,0 m -6.882294,-25.25323 6.882294,0 m -6.882294,2.57723 4.653534,0 m -6.806066,-76.57279 11.797181,0 m -14.378042,14.75192 16.650362,0 m -14.069501,13.71014 11.797181,0 m -14.378042,14.62125 16.650362,0 m -14.069501,13.51776 11.797181,0 m -14.378042,14.57042 16.650362,0 m -2.27232,17.26382 -10.330701,0 m -4.047341,13.57946 16.650362,0"
         style="fill:none;stroke:#1a1a18;stroke-width:0.49366674;stroke-linecap:round;stroke-linejoin:round;stroke-miterlimit:4;stroke-opacity:1;stroke-dasharray:none"
         id="path3004"
         inkscape:connector-curvature="0" />
      <g
         transform="scale(0.904522,1.1055563)"
         style="font-size:39.3999176px"
         id="text3014">
        <path
           d="m 109.09775,753.78887 0.63203,-0.0535 c 0.0468,0.30766 0.1555,0.53896 0.32605,0.6939 0.17054,0.15494 0.37621,0.23242 0.61698,0.23242 0.28982,0 0.53505,-0.10924 0.7357,-0.32773 0.20064,-0.21847 0.30097,-0.5083 0.30097,-0.86946 0,-0.34332 -0.0964,-0.61419 -0.28926,-0.81261 -0.19285,-0.19841 -0.44533,-0.29762 -0.75744,-0.29763 -0.19396,10e-6 -0.36897,0.044 -0.52502,0.1321 -0.15606,0.0881 -0.27868,0.20232 -0.36785,0.34277 l -0.56515,-0.0736 0.47486,-2.5181 2.43784,0 0,0.57518 -1.95629,0 -0.26419,1.31757 c 0.29428,-0.2051 0.60305,-0.30765 0.92632,-0.30765 0.42804,0 0.7892,0.14825 1.08348,0.44476 0.29428,0.29651 0.44142,0.67774 0.44142,1.14368 0,0.44365 -0.12931,0.8271 -0.38791,1.15036 -0.31435,0.39683 -0.74351,0.59525 -1.28748,0.59525 -0.44588,0 -0.80983,-0.12485 -1.09184,-0.37454 -0.28202,-0.24969 -0.44309,-0.58075 -0.48322,-0.99319 z"
           style="font-size:6.84869099px;font-variant:normal;font-weight:normal;font-stretch:normal;writing-mode:lr-tb;fill:#1a1a18;fill-opacity:1;fill-rule:nonzero;stroke:none;font-family:Arial MT;-inkscape-font-specification:ArialMT"
           id="path3002" />
        <path
           d="m 112.55617,752.65522 c 0,-0.57964 0.0596,-1.04614 0.17891,-1.3995 0.11927,-0.35335 0.2965,-0.62589 0.53171,-0.81763 0.23519,-0.19172 0.53115,-0.28758 0.88785,-0.28759 0.26307,1e-5 0.49381,0.053 0.69223,0.15885 0.19841,0.1059 0.36227,0.25861 0.49158,0.45814 0.1293,0.19953 0.23074,0.44253 0.30431,0.72901 0.0736,0.28648 0.11035,0.67272 0.11035,1.15872 0,0.57519 -0.0591,1.03946 -0.17723,1.39282 -0.11816,0.35335 -0.29484,0.62645 -0.53004,0.8193 -0.2352,0.19284 -0.53227,0.28926 -0.8912,0.28926 -0.47263,0 -0.84383,-0.16943 -1.11358,-0.5083 -0.32326,-0.40798 -0.48489,-1.07234 -0.48489,-1.99308 z m 0.61865,0 c 0,0.80481 0.0942,1.34043 0.28258,1.60684 0.18838,0.26641 0.42079,0.39962 0.69724,0.39962 0.27644,0 0.50886,-0.13377 0.69724,-0.4013 0.18838,-0.26752 0.28258,-0.80257 0.28258,-1.60516 0,-0.80703 -0.0942,-1.3432 -0.28258,-1.6085 -0.18838,-0.2653 -0.42303,-0.39795 -0.70393,-0.39795 -0.27644,0 -0.49715,0.11705 -0.66213,0.35113 -0.20733,0.29874 -0.311,0.85052 -0.311,1.65532 z"
           style="font-size:6.84869099px;font-variant:normal;font-weight:normal;font-stretch:normal;writing-mode:lr-tb;fill:#1a1a18;fill-opacity:1;fill-rule:nonzero;stroke:none;font-family:Arial MT;-inkscape-font-specification:ArialMT"
           id="path3005" />
        <path
           d="m 111.1079,725.569 0.60194,-0.0803 c 0.0691,0.3411 0.18671,0.58689 0.3528,0.73737 0.16609,0.15048 0.36841,0.22573 0.60695,0.22573 0.28313,0 0.52224,-0.0981 0.71731,-0.29428 0.19507,-0.19619 0.2926,-0.43919 0.29261,-0.72901 -10e-6,-0.27645 -0.0903,-0.5044 -0.27087,-0.68387 -0.18059,-0.17946 -0.41021,-0.2692 -0.68889,-0.2692 -0.1137,0 -0.25526,0.0223 -0.42469,0.0669 l 0.0669,-0.52836 c 0.0401,0.004 0.0724,0.007 0.097,0.007 0.25637,10e-6 0.48712,-0.0669 0.69222,-0.20064 0.2051,-0.13376 0.30765,-0.33998 0.30766,-0.61866 -1e-5,-0.2207 -0.0747,-0.40351 -0.22406,-0.54843 -0.14937,-0.1449 -0.34221,-0.21736 -0.57852,-0.21736 -0.23409,0 -0.42916,0.0736 -0.58522,0.22071 -0.15606,0.14714 -0.25638,0.36785 -0.30097,0.66213 l -0.60193,-0.10701 c 0.0736,-0.40352 0.24077,-0.71619 0.50161,-0.93802 0.26084,-0.22182 0.58521,-0.33273 0.97313,-0.33274 0.26753,10e-6 0.51387,0.0574 0.73904,0.17222 0.22517,0.11482 0.39739,0.27144 0.51666,0.46985 0.11927,0.19842 0.17891,0.40909 0.17891,0.63203 0,0.2118 -0.0568,0.40464 -0.17054,0.57853 -0.11371,0.17389 -0.28203,0.31211 -0.50496,0.41466 0.28982,0.0669 0.51498,0.20567 0.6755,0.41634 0.16052,0.21068 0.24077,0.47431 0.24078,0.79088 -1e-5,0.42804 -0.15606,0.79088 -0.46817,1.0885 -0.31212,0.29762 -0.70672,0.44644 -1.18381,0.44644 -0.43028,0 -0.78753,-0.12819 -1.07178,-0.38457 -0.28425,-0.25638 -0.44644,-0.58856 -0.48657,-0.99654 z"
           style="font-size:6.84869099px;font-variant:normal;font-weight:normal;font-stretch:normal;writing-mode:lr-tb;fill:#1a1a18;fill-opacity:1;fill-rule:nonzero;stroke:none;font-family:Arial MT;-inkscape-font-specification:ArialMT"
           id="path3007" />
        <path
           d="m 114.26807,700.80068 0,0.57853 -3.24042,0 c -0.004,-0.14491 0.019,-0.28425 0.0702,-0.41801 0.0825,-0.22071 0.21458,-0.43807 0.39628,-0.6521 0.18169,-0.21402 0.4442,-0.46148 0.78753,-0.74238 0.53282,-0.43696 0.89287,-0.78308 1.08014,-1.03834 0.18727,-0.25527 0.2809,-0.4966 0.2809,-0.724 0,-0.23854 -0.0853,-0.43974 -0.25582,-0.60361 -0.17055,-0.16385 -0.39293,-0.24578 -0.66715,-0.24579 -0.28982,10e-6 -0.52167,0.087 -0.69557,0.26084 -0.17389,0.1739 -0.26195,0.41467 -0.26418,0.72233 l -0.61866,-0.0635 c 0.0424,-0.46148 0.20176,-0.81317 0.47821,-1.05506 0.27644,-0.24189 0.64764,-0.36283 1.11358,-0.36284 0.4704,10e-6 0.84271,0.13043 1.11693,0.39126 0.27421,0.26085 0.41131,0.58411 0.41132,0.96979 -1e-5,0.19619 -0.0401,0.38903 -0.12039,0.57853 -0.0803,0.1895 -0.21347,0.38903 -0.39962,0.59859 -0.18615,0.20956 -0.49548,0.49715 -0.92798,0.86277 -0.36116,0.3032 -0.59302,0.50886 -0.69557,0.61699 -0.10255,0.10812 -0.18727,0.2168 -0.25415,0.32604 z"
           style="font-size:6.84869099px;font-variant:normal;font-weight:normal;font-stretch:normal;writing-mode:lr-tb;fill:#1a1a18;fill-opacity:1;fill-rule:nonzero;stroke:none;font-family:Arial MT;-inkscape-font-specification:ArialMT"
           id="path3009" />
        <path
           d="m 113.37185,675.80627 -0.60193,0 0,-3.83566 c -0.14492,0.13822 -0.33497,0.27644 -0.57017,0.41466 -0.2352,0.13823 -0.44644,0.2419 -0.63371,0.311 l 0,-0.58187 c 0.33664,-0.15828 0.63092,-0.35001 0.88284,-0.57518 0.25192,-0.22517 0.43027,-0.44365 0.53506,-0.65544 l 0.38791,0 z"
           style="font-size:6.84869099px;font-variant:normal;font-weight:normal;font-stretch:normal;writing-mode:lr-tb;fill:#1a1a18;fill-opacity:1;fill-rule:nonzero;stroke:none;font-family:Arial MT;-inkscape-font-specification:ArialMT"
           id="path3011" />
        <path
           d="m 111.10456,647.70588 c 0,-0.57964 0.0596,-1.04614 0.17891,-1.3995 0.11927,-0.35335 0.29651,-0.6259 0.53171,-0.81763 0.2352,-0.19172 0.53115,-0.28758 0.88785,-0.28759 0.26307,1e-5 0.49381,0.053 0.69223,0.15884 0.19841,0.10591 0.36227,0.25862 0.49158,0.45814 0.1293,0.19954 0.23074,0.44254 0.30431,0.72902 0.0736,0.28648 0.11035,0.67272 0.11036,1.15872 -10e-6,0.57519 -0.0591,1.03946 -0.17724,1.39281 -0.11816,0.35336 -0.29484,0.62646 -0.53004,0.81931 -0.2352,0.19284 -0.53227,0.28926 -0.8912,0.28926 -0.47263,0 -0.84382,-0.16943 -1.11358,-0.5083 -0.32326,-0.40798 -0.48489,-1.07234 -0.48489,-1.99308 z m 0.61866,0 c 0,0.80481 0.0942,1.34042 0.28257,1.60684 0.18838,0.26641 0.4208,0.39961 0.69724,0.39961 0.27645,0 0.50886,-0.13376 0.69725,-0.40129 0.18838,-0.26752 0.28257,-0.80258 0.28257,-1.60516 0,-0.80703 -0.0942,-1.3432 -0.28257,-1.6085 -0.18839,-0.2653 -0.42303,-0.39795 -0.70393,-0.39795 -0.27645,0 -0.49716,0.11705 -0.66213,0.35113 -0.20734,0.29874 -0.311,0.85051 -0.311,1.65532 z"
           style="font-size:6.84869099px;font-variant:normal;font-weight:normal;font-stretch:normal;writing-mode:lr-tb;fill:#1a1a18;fill-opacity:1;fill-rule:nonzero;stroke:none;font-family:Arial MT;-inkscape-font-specification:ArialMT"
           id="path3013" />
        <path
           d="m 102.14206,604.13464 0,-3.55142 0.5384,0 0,0.49827 c 0.11147,-0.17389 0.25973,-0.31378 0.44477,-0.41968 0.18503,-0.10589 0.39571,-0.15884 0.63203,-0.15885 0.26306,10e-6 0.47876,0.0546 0.64708,0.16386 0.16832,0.10925 0.28703,0.26196 0.35615,0.45814 0.2809,-0.41466 0.64651,-0.62199 1.09686,-0.622 0.35224,10e-6 0.62311,0.0975 0.81261,0.29261 0.18949,0.19508 0.28424,0.49549 0.28425,0.90123 l 0,2.43784 -0.5986,0 0,-2.23719 c 0,-0.24077 -0.0195,-0.41411 -0.0585,-0.52001 -0.039,-0.10589 -0.1098,-0.19116 -0.21235,-0.25582 -0.10255,-0.0647 -0.22294,-0.097 -0.36116,-0.097 -0.24969,10e-6 -0.45703,0.0831 -0.622,0.24914 -0.16498,0.16609 -0.24746,0.43194 -0.24746,0.79756 l 0,2.0633 -0.60194,0 0,-2.30742 c 0,-0.26752 -0.049,-0.46817 -0.14714,-0.60193 -0.0981,-0.13376 -0.25861,-0.20064 -0.48154,-0.20065 -0.16944,10e-6 -0.32605,0.0446 -0.46985,0.13377 -0.1438,0.0892 -0.24802,0.21959 -0.31267,0.39125 -0.0647,0.17167 -0.097,0.41913 -0.097,0.74239 l 0,1.84259 z"
           style="font-size:6.84869099px;font-variant:normal;font-weight:normal;font-stretch:normal;writing-mode:lr-tb;fill:#1a1a18;fill-opacity:1;fill-rule:nonzero;stroke:none;font-family:Arial MT;-inkscape-font-specification:ArialMT"
           id="path3015" />
        <path
           d="m 107.48448,604.13464 0,-4.90243 0.60193,0 0,4.90243 z"
           style="font-size:6.84869099px;font-variant:normal;font-weight:normal;font-stretch:normal;writing-mode:lr-tb;fill:#1a1a18;fill-opacity:1;fill-rule:nonzero;stroke:none;font-family:Arial MT;-inkscape-font-specification:ArialMT"
           id="path3017" />
        <path
           d="m 95.054972,618.01007 0,-4.90243 3.544732,0 0,0.57853 -2.89598,0 0,1.50149 2.712055,0 0,0.57518 -2.712055,0 0,1.6687 3.009679,0 0,0.57853 z"
           style="font-size:6.84869099px;font-variant:normal;font-weight:normal;font-stretch:normal;writing-mode:lr-tb;fill:#1a1a18;fill-opacity:1;fill-rule:nonzero;stroke:none;font-family:Arial MT;-inkscape-font-specification:ArialMT"
           id="path3019" />
        <path
           d="m 98.775526,618.01007 1.297504,-1.84594 -1.200525,-1.70548 0.752419,0 0.545086,0.83268 c 0.10255,0.15829 0.18504,0.29094 0.24746,0.39794 0.0981,-0.14713 0.18838,-0.27755 0.27087,-0.39125 l 0.5986,-0.83937 0.71897,0 -1.22728,1.67204 1.32092,1.87938 -0.73904,0 -0.72902,-1.10355 -0.19395,-0.29762 -0.933003,1.40117 z"
           style="font-size:6.84869099px;font-variant:normal;font-weight:normal;font-stretch:normal;writing-mode:lr-tb;fill:#1a1a18;fill-opacity:1;fill-rule:nonzero;stroke:none;font-family:Arial MT;-inkscape-font-specification:ArialMT"
           id="path3021" />
        <path
           d="m 105.24117,617.43154 0,0.57853 -3.24042,0 c -0.004,-0.14491 0.019,-0.28425 0.0702,-0.41801 0.0825,-0.22071 0.21458,-0.43807 0.39627,-0.6521 0.1817,-0.21402 0.44421,-0.46148 0.78754,-0.74238 0.53282,-0.43696 0.89286,-0.78308 1.08014,-1.03834 0.18726,-0.25527 0.2809,-0.4966 0.2809,-0.724 0,-0.23854 -0.0853,-0.43974 -0.25582,-0.60361 -0.17055,-0.16385 -0.39294,-0.24578 -0.66715,-0.24579 -0.28982,1e-5 -0.52168,0.087 -0.69557,0.26084 -0.17389,0.1739 -0.26195,0.41467 -0.26418,0.72232 l -0.61866,-0.0635 c 0.0424,-0.46148 0.20176,-0.81317 0.47821,-1.05506 0.27644,-0.24189 0.64763,-0.36283 1.11358,-0.36284 0.4704,10e-6 0.8427,0.13043 1.11692,0.39126 0.27421,0.26085 0.41132,0.58411 0.41132,0.96979 0,0.19619 -0.0401,0.38903 -0.12038,0.57852 -0.0803,0.18951 -0.21347,0.38904 -0.39962,0.5986 -0.18616,0.20956 -0.49549,0.49715 -0.92799,0.86277 -0.36116,0.3032 -0.59301,0.50886 -0.69557,0.61699 -0.10255,0.10812 -0.18727,0.2168 -0.25415,0.32604 z"
           style="font-size:6.84869099px;font-variant:normal;font-weight:normal;font-stretch:normal;writing-mode:lr-tb;fill:#1a1a18;fill-opacity:1;fill-rule:nonzero;stroke:none;font-family:Arial MT;-inkscape-font-specification:ArialMT"
           id="path3023" />
        <path
           d="m 105.52944,615.5923 c 0,-0.57964 0.0596,-1.04614 0.17891,-1.3995 0.11927,-0.35336 0.29651,-0.6259 0.53171,-0.81763 0.2352,-0.19173 0.53115,-0.28759 0.88785,-0.2876 0.26307,10e-6 0.49381,0.053 0.69223,0.15885 0.19841,0.1059 0.36227,0.25861 0.49158,0.45814 0.1293,0.19953 0.23074,0.44254 0.30431,0.72901 0.0736,0.28648 0.11035,0.67272 0.11036,1.15873 -10e-6,0.57518 -0.0591,1.03945 -0.17724,1.39281 -0.11816,0.35336 -0.29484,0.62646 -0.53004,0.8193 -0.2352,0.19284 -0.53227,0.28926 -0.8912,0.28926 -0.47263,0 -0.84382,-0.16943 -1.11358,-0.5083 -0.32326,-0.40798 -0.48489,-1.07233 -0.48489,-1.99307 z m 0.61866,0 c 0,0.80481 0.0942,1.34042 0.28257,1.60683 0.18838,0.26641 0.4208,0.39962 0.69724,0.39962 0.27645,0 0.50886,-0.13376 0.69725,-0.40129 0.18838,-0.26753 0.28257,-0.80258 0.28257,-1.60516 0,-0.80704 -0.0942,-1.34321 -0.28257,-1.60851 -0.18839,-0.26529 -0.42303,-0.39794 -0.70393,-0.39795 -0.27645,1e-5 -0.49716,0.11705 -0.66213,0.35113 -0.20734,0.29874 -0.311,0.85052 -0.311,1.65533 z"
           style="font-size:6.84869099px;font-variant:normal;font-weight:normal;font-stretch:normal;writing-mode:lr-tb;fill:#1a1a18;fill-opacity:1;fill-rule:nonzero;stroke:none;font-family:Arial MT;-inkscape-font-specification:ArialMT"
           id="path3025" />
        <path
           d="m 109.12501,613.95035 c 0,-0.25638 0.0909,-0.47486 0.27254,-0.65544 0.1817,-0.18058 0.39962,-0.27087 0.65377,-0.27087 0.25861,0 0.47821,0.0903 0.65879,0.27087 0.18058,0.18058 0.27087,0.39906 0.27087,0.65544 0,0.25638 -0.0909,0.47542 -0.27254,0.65711 -0.1817,0.1817 -0.40074,0.27255 -0.65712,0.27254 -0.25415,10e-6 -0.47207,-0.0903 -0.65377,-0.27087 -0.18169,-0.18057 -0.27254,-0.40017 -0.27254,-0.65878 z m 0.36451,0 c 0,0.15606 0.0552,0.28927 0.16553,0.39962 0.11035,0.11036 0.24356,0.16553 0.39962,0.16553 0.15382,0 0.28592,-0.0552 0.39627,-0.16553 0.11035,-0.11035 0.16553,-0.24356 0.16553,-0.39962 0,-0.15605 -0.0552,-0.28926 -0.16553,-0.39962 -0.11035,-0.11035 -0.24245,-0.16553 -0.39627,-0.16553 -0.15606,0 -0.28927,0.0552 -0.39962,0.16553 -0.11036,0.11036 -0.16553,0.24357 -0.16553,0.39962 z"
           style="font-size:6.84869099px;font-variant:normal;font-weight:normal;font-stretch:normal;writing-mode:lr-tb;fill:#1a1a18;fill-opacity:1;fill-rule:nonzero;stroke:none;font-family:Arial MT;-inkscape-font-specification:ArialMT"
           id="path3027" />
        <path
           d="m 115.1067,616.29121 0.64876,0.16386 c -0.136,0.53283 -0.38068,0.93913 -0.73403,1.21892 -0.35336,0.27979 -0.78531,0.41968 -1.29584,0.41968 -0.52836,0 -0.95808,-0.10757 -1.28914,-0.3227 -0.33107,-0.21514 -0.58299,-0.52669 -0.75576,-0.93467 -0.17278,-0.40798 -0.25917,-0.84606 -0.25917,-1.31423 0,-0.51053 0.0975,-0.95585 0.29261,-1.33596 0.19507,-0.38011 0.47263,-0.66882 0.83267,-0.86612 0.36005,-0.1973 0.75632,-0.29595 1.18883,-0.29595 0.49046,0 0.9029,0.12485 1.23731,0.37453 0.3344,0.2497 0.56737,0.60083 0.69891,1.05339 l -0.63872,0.15049 c -0.1137,-0.3567 -0.27867,-0.61643 -0.49492,-0.77918 -0.21626,-0.16274 -0.48824,-0.24411 -0.81596,-0.24411 -0.37677,0 -0.69167,0.0903 -0.9447,0.27087 -0.25304,0.18058 -0.43084,0.42303 -0.53339,0.72734 -0.10255,0.30431 -0.15383,0.6181 -0.15382,0.94136 -1e-5,0.41689 0.0607,0.78084 0.18225,1.09184 0.1215,0.311 0.31044,0.54342 0.56682,0.69724 0.25638,0.15383 0.53394,0.23074 0.83268,0.23074 0.36339,0 0.67104,-0.10478 0.92297,-0.31434 0.25191,-0.20956 0.42246,-0.52056 0.51164,-0.933 z"
           style="font-size:6.84869099px;font-variant:normal;font-weight:normal;font-stretch:normal;writing-mode:lr-tb;fill:#1a1a18;fill-opacity:1;fill-rule:nonzero;stroke:none;font-family:Arial MT;-inkscape-font-specification:ArialMT"
           id="path3029" />
      </g>
      <g
         transform="scale(0.90453827,1.1055364)"
         style="font-size:39.40062332px"
         id="text3030">
        <path
           d="m 100.15445,631.3158 2.15164,-5.60268 0.79875,0 2.29305,5.60268 -0.84461,0 -0.65352,-1.69686 -2.34273,0 -0.6153,1.69686 z m 1.6166,-2.30069 1.89941,0 -0.58473,-1.55163 c -0.17835,-0.47135 -0.31084,-0.85862 -0.39746,-1.16181 -0.0713,0.35924 -0.17198,0.71594 -0.30192,1.07008 z"
           style="font-size:7.82693434px;font-variant:normal;font-weight:normal;font-stretch:normal;writing-mode:lr-tb;fill:#1a1a18;fill-opacity:1;fill-rule:nonzero;stroke:none;font-family:Arial MT;-inkscape-font-specification:ArialMT"
           id="path3032" />
        <path
           d="m 105.34691,629.51575 0.69938,-0.0611 c 0.0331,0.28026 0.11019,0.5102 0.23121,0.68982 0.12102,0.17962 0.30893,0.32485 0.56371,0.43568 0.25478,0.11083 0.54141,0.16625 0.85989,0.16625 0.28281,0 0.5325,-0.042 0.74907,-0.12612 0.21656,-0.0841 0.37771,-0.19937 0.48345,-0.34587 0.10573,-0.1465 0.15859,-0.30637 0.1586,-0.47963 -1e-5,-0.1758 -0.051,-0.3293 -0.15287,-0.46052 -0.10192,-0.13121 -0.27007,-0.2414 -0.50447,-0.33058 -0.15033,-0.0586 -0.48282,-0.14968 -0.99748,-0.27325 -0.51466,-0.12357 -0.87518,-0.24013 -1.08155,-0.34969 -0.26752,-0.14013 -0.46689,-0.31402 -0.5981,-0.52167 -0.13122,-0.20765 -0.19682,-0.44014 -0.19682,-0.69747 0,-0.28281 0.0803,-0.54714 0.24077,-0.79301 0.16051,-0.24586 0.39491,-0.43249 0.7032,-0.55989 0.30828,-0.12738 0.65097,-0.19108 1.02805,-0.19109 0.41529,10e-6 0.78154,0.0669 1.09875,0.20065 0.3172,0.13376 0.56115,0.33058 0.73186,0.59045 0.1707,0.25989 0.26242,0.55416 0.27517,0.88283 l -0.71085,0.0535 c -0.0382,-0.35414 -0.16752,-0.62166 -0.3879,-0.80256 -0.22039,-0.18089 -0.54588,-0.27134 -0.97646,-0.27135 -0.44842,1e-5 -0.77518,0.0822 -0.98028,0.2465 -0.2051,0.16434 -0.30765,0.36244 -0.30765,0.59429 0,0.20128 0.0726,0.36689 0.21784,0.49682 0.14268,0.12995 0.5153,0.26307 1.11786,0.39938 0.60256,0.13631 1.01595,0.25542 1.24016,0.35733 0.32612,0.15032 0.56689,0.34077 0.72231,0.57135 0.15541,0.23058 0.23312,0.49619 0.23313,0.79683 -10e-6,0.2981 -0.0854,0.579 -0.25606,0.8427 -0.17071,0.2637 -0.41594,0.4688 -0.73569,0.6153 -0.31975,0.1465 -0.67963,0.21975 -1.07964,0.21975 -0.50702,0 -0.93187,-0.0739 -1.27455,-0.22166 -0.34269,-0.14778 -0.61148,-0.37007 -0.80639,-0.6669 -0.19491,-0.29682 -0.29746,-0.63249 -0.30765,-1.00703 z"
           style="font-size:7.82693434px;font-variant:normal;font-weight:normal;font-stretch:normal;writing-mode:lr-tb;fill:#1a1a18;fill-opacity:1;fill-rule:nonzero;stroke:none;font-family:Arial MT;-inkscape-font-specification:ArialMT"
           id="path3034" />
      </g>
      <path
         d="m 83.986184,821.1984 0,39.33362 c 0,10.87156 5.408555,11.18373 5.408555,15.57591 l 0,22.50176 c 0,3.70976 -3.811398,3.70976 -5.408555,3.70976 -1.600787,0 -3.934814,0.67517 -3.934814,0.67517 m 25.55814,-93.84387 0,-200.2726 c 0,-2.10171 3.25602,-2.04 3.25602,-3.74969 0,-1.70605 -3.25602,-1.54634 -3.25602,-1.54634 l -21.623326,0 c -1.045412,0 -2.59175,0.0218 -2.59175,1.54634 0,1.52819 2.671608,1.54997 2.642569,3.74969 -0.03993,2.44293 -0.04719,130.68737 -0.05082,203.162 m 27.329537,88.72571 c 0,0 -4.17802,0.66064 -5.70621,0.66064 -1.52093,0 -4.42485,0 -4.42485,-2.81681 l 0,-22.50176 c 0,-4.64265 4.42485,-4.76606 4.42485,-15.57591 l 0,-41.87818"
         style="fill:none;stroke:#1a1a18;stroke-width:2.43203449;stroke-linecap:round;stroke-linejoin:round;stroke-miterlimit:4;stroke-opacity:1;stroke-dasharray:none"
         id="path3064"
         inkscape:connector-curvature="0" />
      <path
         d="m 85.860303,607.05376 18.029727,0"
         style="fill:none;stroke:#1a1a18;stroke-width:1.62256634;stroke-linecap:round;stroke-linejoin:round;stroke-miterlimit:4;stroke-opacity:1;stroke-dasharray:none"
         id="path3076"
         inkscape:connector-curvature="0" />
      <path
         d="m 83.986184,812.04088 c 1.720574,1.71694 3.317731,1.41203 4.145349,1.41203 3.902145,0 11.12202,-5.82236 14.098537,-5.82236 2.49012,0 3.37944,0.58078 3.37944,1.87303 0,2.17431 -5.46663,3.58271 -7.3687,3.58271 -1.902068,0 -3.70613,0.0327 -5.521081,-1.07445 m 12.889781,6.63909 c -1.72057,-1.71331 -3.3141,-1.4084 -4.14535,-1.4084 -3.898511,0 -11.118387,5.82236 -14.098537,5.82236 -2.490113,0 -3.379439,-0.58078 -3.379439,-1.87303 0,-2.17068 5.470263,-3.57908 7.372332,-3.57908 1.909328,0 3.70613,-0.0399 5.521081,1.07082 m -34.364285,82.50768 12.947862,0 0,21.46361 -12.947862,0 0,-21.46361 z m 10.163726,0 0,21.46724 m 5.419445,-21.46724 c 0.755019,0 1.785912,0.21416 1.785912,1.61168 l 0,17.73207 c 0,1.30314 -0.577155,2.12349 -1.600787,2.12349 -1.030893,0 -1.836731,-0.59167 -1.836731,-2.12349 l 0,-17.73207 c 0,-1.16157 0.715091,-1.61168 1.651606,-1.61168 z m -15.768296,14.41071 c -1.597157,0 -2.511892,-2.42477 -2.511892,-3.88762 0,-1.47011 0.73324,-4.06549 2.148902,-4.06549 m 2.889402,-2.03275 3.927554,0 m -3.927554,12.29085 3.927554,0 m -3.927554,-6.14905 3.927554,0"
         style="fill:none;stroke:#1a1a18;stroke-width:2.43203449;stroke-linecap:round;stroke-linejoin:round;stroke-miterlimit:4;stroke-opacity:1;stroke-dasharray:none"
         id="path3088"
         inkscape:connector-curvature="0" />
      <path
         d="m 86.813152,866.61138 14.987868,0 m -10.254475,8.84607 6.882294,0 m -8.425003,26.79594 c 1.542709,0.79858 8.483082,0.33032 9.833405,-0.36662 m -9.092905,18.80289 c 2.457444,-0.73324 7.557457,-0.25046 9.339734,0.86392"
         style="fill:none;stroke:#1a1a18;stroke-width:1.62256634;stroke-linecap:round;stroke-linejoin:round;stroke-miterlimit:4;stroke-opacity:1;stroke-dasharray:none"
         id="path3092"
         inkscape:connector-curvature="0" />
      <path
         d="m 110.73965,922.66037 c 0,0 -6.85325,-1.23416 -8.4613,0.36662 -0.7042,0.70784 -1.08897,1.35396 -1.08897,2.40663 l 0,36.04856 -3.931184,28.84683 0,10.81709 -4.301434,0 0,-10.81709 -3.564564,-28.84683 0,-36.04856 c 0,0 0.73687,-1.54634 -0.490037,-2.77325 -1.230537,-1.2269 -2.087194,-1.10712 -2.087194,-1.10712 l -6.581013,-0.67153 m 32.701786,-22.27308 c 1.08534,0 1.85125,0.80221 1.85125,2.58449 l 0,21.46724 c 0,0.5336 -0.24683,2.77325 -1.63345,2.77325 -1.38662,0 -2.13438,-0.92563 -2.13438,-2.77325 l 0,-21.46724 c 0,-1.4447 0.56263,-2.58449 1.91658,-2.58449 z m 1.85125,2.58449 2.78414,4.42485 0,12.28722 -2.78414,4.75517 m 2.78414,-17.04239 3.79325,0 4.24335,-15.56865 c 0,0 0.57353,-1.96378 1.96015,-1.96378 1.39751,0 8.37055,0.77317 8.37055,0.77317 0,0 2.33766,0.39203 2.64983,2.24691 0.30492,1.85488 1.59353,15.50695 1.59353,20.1387 0,8.03661 -1.32128,18.36005 -1.87666,20.6977 -0.55174,2.3304 -1.53908,2.76599 -2.63894,2.76599 -1.11075,0 -7.86963,0.4247 -7.86963,0.4247 0,0 -2.09082,-0.36662 -2.76598,-2.20698 -0.67516,-1.84399 -3.6662,-15.02054 -3.6662,-15.02054 l -3.79325,0"
         style="fill:none;stroke:#1a1a18;stroke-width:2.43203449;stroke-linecap:round;stroke-linejoin:round;stroke-miterlimit:4;stroke-opacity:1;stroke-dasharray:none"
         id="path3096"
         inkscape:connector-curvature="0" />
    </g>
  </g>
</svg>
